<?xml version="1.0" encoding="utf-8"?>
<!-- Generator: Adobe Illustrator 26.5.0, SVG Export Plug-In . SVG Version: 6.00 Build 0)  -->
<svg version="1.1" id="Layer_1" xmlns="http://www.w3.org/2000/svg" xmlns:xlink="http://www.w3.org/1999/xlink" x="0px" y="0px"
	 viewBox="0 0 2000 385" style="enable-background:new 0 0 2000 385;" xml:space="preserve">
<style type="text/css">
	.st0{fill:#FFFFFF;}
</style>
<path class="st0" d="M0,300.1V51.9h44.3l84,165.2L212,51.9h44.3v248.2h-37.6V116.8l-75.9,147.9h-29.1L37.6,117.1v183L0,300.1z"/>
<path class="st0" d="M364.8,304.3c-14.9,0-27.2-2.5-36.9-7.4c-9.7-5-16.9-11.5-21.6-19.7c-4.7-8.1-7.2-17.4-7.1-26.8
	c0-17,6.6-30.5,19.9-40.4s32.1-14.9,56.7-14.9h46.1v-3.2c0-13.7-3.7-24-11.2-30.9c-7.4-6.9-17.1-10.3-28.9-10.3
	c-10.4,0-19.5,2.5-27.1,7.6c-7.7,5.1-12.3,12.6-14,22.5h-37.6c1.2-12.8,5.5-23.7,12.9-32.8c7.6-9.2,17.3-16.4,28.4-20.9
	c12-4.9,24.8-7.4,37.8-7.3c24.6,0,43.6,6.4,57.1,19.3c13.5,12.9,20.2,30.4,20.2,52.6v108.1h-32.6l-3.2-30.1
	c-5.1,9.8-12.5,18.2-21.6,24.5C392.6,301,380.2,304.3,364.8,304.3z M372.3,273.8c10.2,0,18.7-2.4,25.7-7.3
	c7-4.9,12.7-11.6,16.3-19.3c4-8.4,6.5-17.4,7.3-26.6h-41.8c-14.9,0-25.5,2.6-31.7,7.8c-6.3,5.2-9.4,11.7-9.4,19.5c0,8,3,14.4,9,19
	S361.8,273.9,372.3,273.8z"/>
<path class="st0" d="M575.4,246.2c-8.6,0.1-17.2-1-25.5-3.2l-15.2,14.9c3,1.8,6.2,3.3,9.6,4.3c5.2,1.5,10.6,2.6,16,3.2
	c6.8,1,16.2,1.9,28,2.8c23.4,2.1,40.3,7.7,50.7,16.8s15.6,21.2,15.6,36.3c0,10.4-2.9,20.7-8.3,29.6c-5.5,9.3-14.2,16.9-25.9,22.7
	s-26.7,8.7-44.8,8.7c-24.6,0-44.5-4.7-59.7-14c-15.2-9.3-22.9-23.5-22.9-42.4c0.1-7.6,2.1-15.1,5.9-21.8c3.9-7.2,10.1-14,18.6-20.4
	c-4.5-1.9-8.9-4.2-12.9-6.9c-3.4-2.3-6.7-4.8-9.8-7.6v-8.5l30.5-31.2c-13.7-11.8-20.6-27.3-20.6-46.4c-0.1-11.1,2.8-22.1,8.3-31.7
	c5.5-9.6,13.6-17.2,24.3-22.9c10.6-5.7,23.4-8.5,38.3-8.5c9.4-0.1,18.7,1.4,27.7,4.3h65.6V149l-31.2,1.8c5.7,9.8,8.6,21,8.5,32.3
	c0.2,11.2-2.7,22.3-8.3,31.9c-5.5,9.5-13.6,17-24.1,22.7C603,243.4,590.3,246.2,575.4,246.2z M528.3,322.4
	c0,10.2,4.5,17.8,13.5,22.9s20.2,7.6,33.7,7.6c13,0,23.5-2.8,31.6-8.3c8-5.6,12-12.9,12-22.2c0-6.8-2.7-12.7-8.2-17.5
	s-15.7-7.9-30.8-9c-11.3-0.7-21.4-1.8-30.1-3.2c-8.3,4.5-13.9,9.3-17,14.5C530,311.8,528.4,317,528.3,322.4L528.3,322.4z
	 M575.4,216.7c10.9,0,19.7-2.9,26.4-8.7c6.7-5.8,10.1-14,10.2-24.6c0-10.9-3.4-19.1-10.1-24.8s-15.5-8.5-26.4-8.5
	c-11.1,0-20,2.8-26.8,8.5c-6.7,5.7-10.1,13.9-10.1,24.8c0,10.7,3.4,18.9,10.1,24.6C555.4,213.8,564.4,216.7,575.4,216.7L575.4,216.7
	z"/>
<path class="st0" d="M704.8,300.1V124.2h37.6v175.9H704.8z"/>
<path class="st0" d="M875.4,304.3c-17.2,0-32.7-3.9-46.3-11.7c-13.4-7.6-24.5-18.9-31.9-32.4c-7.7-13.8-11.5-29.8-11.5-48
	c0-18.2,3.8-34.2,11.5-48c7.4-13.6,18.5-24.8,31.9-32.4c13.6-7.8,29-11.7,46.3-11.7c21.8,0,40,5.7,54.8,17
	c14.8,11.3,24.3,26.7,28.5,46.1h-39.3c-2.1-9.3-7.7-17.4-15.6-22.7c-8-5.4-17.5-8.1-28.4-8.1c-9-0.1-17.8,2.3-25.5,6.9
	c-8,4.8-14.5,11.9-18.8,20.2c-4.7,8.9-7.1,19.8-7.1,32.8s2.4,23.9,7.1,32.8c4.3,8.4,10.8,15.4,18.8,20.4c7.7,4.7,16.5,7.2,25.5,7.1
	c10.9,0,20.3-2.7,28.4-8.1c8-5.4,13.2-13.1,15.6-23.1h39.3c-4,18.9-13.5,34.2-28.4,45.7C915.4,298.6,897.1,304.4,875.4,304.3z"/>
<path class="st0" d="M1090.2,300.1V51.9h80.5c29.1,0,53,5.1,71.8,15.2s32.7,24.5,41.8,43.1c9.1,18.5,13.7,40.6,13.7,66.1
	c0,25.3-4.5,47.2-13.7,65.8c-9.1,18.6-23,32.9-41.8,42.9c-18.8,10.1-42.7,15.1-71.8,15.1L1090.2,300.1z M1127.8,268.1h41.5
	c22.5,0,40.2-3.7,53.4-11c12.8-7,22.8-18.1,28.4-31.5c5.8-13.7,8.7-30.1,8.7-49.3s-2.9-35.7-8.7-49.6c-5.5-13.6-15.5-24.9-28.4-32.1
	c-13.1-7.4-30.9-11.2-53.3-11.2h-41.5L1127.8,268.1z"/>
<path class="st0" d="M1340.5,300.1V124.2h37.6v175.9H1340.5z M1358.9,2.9l10.6,25.4l27.5,2.2L1376,48.4l6.4,26.8l-23.5-14.4
	l-23.5,14.4l6.4-26.8l-20.9-17.9l27.5-2.2L1358.9,2.9z"/>
<path class="st0" d="M1499.7,246.2c-8.6,0.1-17.2-1-25.5-3.2l-15.2,14.9c3,1.8,6.2,3.3,9.6,4.3c5.2,1.5,10.6,2.6,16,3.2
	c6.9,1,16.2,1.9,28,2.8c23.4,2.1,40.3,7.7,50.7,16.8c10.4,9.1,15.6,21.2,15.6,36.3c0,10.4-2.9,20.7-8.3,29.6
	c-5.5,9.3-14.2,16.9-25.9,22.7c-11.7,5.8-26.7,8.7-44.8,8.7c-24.6,0-44.5-4.7-59.7-14c-15.2-9.3-22.9-23.5-22.9-42.4
	c0.1-7.6,2.1-15.1,5.8-21.8c3.9-7.2,10.1-14,18.6-20.4c-4.5-1.9-8.9-4.2-12.9-6.9c-3.4-2.3-6.7-4.8-9.8-7.6v-8.5l30.5-31.2
	c-13.7-11.8-20.6-27.3-20.6-46.4c-0.1-11.1,2.8-22.1,8.3-31.7c5.5-9.6,13.6-17.2,24.3-22.9c10.6-5.7,23.4-8.5,38.3-8.5
	c9.4-0.1,18.7,1.4,27.7,4.3h65.5V149l-31.2,1.8c5.7,9.8,8.6,20.9,8.5,32.3c0.2,11.2-2.7,22.3-8.3,32c-5.6,9.5-13.6,17-24.1,22.7
	C1527.4,243.4,1514.7,246.2,1499.7,246.2z M1452.6,322.4c0,10.2,4.5,17.8,13.5,22.9c9,5.1,20.2,7.6,33.7,7.6c13,0,23.5-2.8,31.6-8.3
	c8-5.6,12-12.9,12-22.2c0-6.8-2.7-12.7-8.2-17.5s-15.7-7.9-30.8-9c-11.3-0.7-21.4-1.8-30.1-3.2c-8.3,4.5-13.9,9.3-17,14.5
	C1454.3,311.8,1452.7,317,1452.6,322.4z M1499.7,216.7c10.9,0,19.7-2.9,26.4-8.7c6.7-5.8,10.1-14,10.1-24.6
	c0-10.9-3.4-19.1-10.1-24.8s-15.5-8.5-26.4-8.5c-11.1,0-20,2.8-26.8,8.5s-10.1,13.9-10.1,24.8c0,10.7,3.4,18.9,10.1,24.6
	C1479.7,213.8,1488.6,216.7,1499.7,216.7L1499.7,216.7z"/>
<path class="st0" d="M1629.1,300.1V124.2h37.6v175.9H1629.1z"/>
<path class="st0" d="M1790.1,300.1c-17.3,0-31-4.2-41.1-12.6c-10.2-8.4-15.2-23.3-15.2-44.9v-86.9h-30.1v-31.6h30.1l4.6-44.7h33
	v44.7h49.7v31.6h-49.6v86.9c0,9.7,2.1,16.4,6.2,20c4.1,3.6,11.3,5.5,21.4,5.5h20.2V300L1790.1,300.1z"/>
<path class="st0" d="M1929.8,304.3c-22.2,0-40.6-5.4-55-16.3s-22.7-25.3-24.8-43.2h38c1.9,8,6.4,15,13.5,20.7s16.4,8.7,28,8.7
	c11.3,0,19.6-2.4,24.8-7.1c5.2-4.7,7.8-10.2,7.8-16.3c0-9-3.6-15.1-10.8-18.3s-17.2-6.1-30-8.7c-10-2.2-19.9-5-29.6-8.5
	c-9.2-3.2-17.5-8.3-24.5-15.1c-6.5-6.5-9.8-15.3-9.8-26.4c0-15.4,5.9-28.2,17.7-38.5c11.8-10.3,28.4-15.4,49.6-15.4
	c19.6,0,35.5,4.7,47.7,14.2c12.2,9.5,19.3,22.8,21.5,40.1h-36.2c-0.9-7.1-4.7-13.5-10.5-17.7c-5.8-4.2-13.5-6.4-23.2-6.4
	c-9.5,0-16.8,2-22,5.9c-5.2,3.9-7.8,8.9-7.8,15.1c0,6.2,3.6,11,10.8,14.5c7.2,3.5,16.7,6.7,28.5,9.6c11.1,2.4,22,5.4,32.8,9
	c10,3.4,18.1,8.5,24.3,15.1c6.1,6.6,9.2,16.3,9.2,29.1c0.2,16.1-6,29.4-18.6,40.1C1968.7,299,1951.5,304.3,1929.8,304.3z"/>
<path class="st0" d="M723.6,90.9c-7.1,0-12.9-2.2-17.5-6.6c-4.6-4.3-7.1-10.3-6.9-16.5c-0.2-6.2,2.4-12.2,6.9-16.5
	c4.6-4.4,10.5-6.6,17.5-6.6c7.1,0,12.9,2.2,17.5,6.6c4.6,4.3,7.1,10.3,6.9,16.5c0.2,6.2-2.3,12.2-6.9,16.5
	C736.6,88.7,730.7,90.9,723.6,90.9z"/>
<path class="st0" d="M1647.9,90.9c-7.1,0-12.9-2.2-17.6-6.6c-4.6-4.3-7.1-10.3-6.9-16.5c-0.2-6.2,2.4-12.2,6.9-16.5
	c4.6-4.4,10.5-6.6,17.6-6.6c7.1,0,12.9,2.2,17.6,6.6c4.6,4.3,7.1,10.3,6.9,16.5c0.2,6.2-2.3,12.2-6.9,16.5
	C1660.9,88.7,1655,90.9,1647.9,90.9z"/>
</svg>
