<svg width="93" height="50" viewBox="0 0 93 50" fill="none" xmlns="http://www.w3.org/2000/svg">
<path d="M75.2738 14.2062C70.0546 14.2062 65.8646 16.0653 62.8507 19.7484V0H55.4263V28.9737H63.108C64.3945 23.9227 68.6948 20.5552 74.4286 20.5552C81.0076 20.5552 85.602 25.2556 85.602 32.0255C85.602 38.7602 81.0076 43.4958 74.4286 43.4958C69.7973 43.4958 66.1219 41.3209 64.174 37.8482H56.4922C56.7861 38.7253 57.3742 39.9879 58.3667 41.4964C62.667 47.9504 69.7973 49.8446 75.2738 49.8446C85.5284 49.8446 92.9896 42.3733 92.9896 32.0604C92.9896 21.7478 85.5652 14.2062 75.2738 14.2062Z" fill="white"/>
<path d="M51.3465 30.3066V0H48.1856L32.1237 16.837L26.243 22.9755L17.9364 31.6747V36.41H27.7866C28.191 35.463 28.4849 34.3405 28.632 33.0427C28.7423 32.1307 28.7057 31.2887 28.5954 30.5522C28.5954 30.447 28.5586 30.3769 28.5586 30.2717H27.4558L29.5877 28.0968L43.9221 13.3293V30.3066H38.9969V36.4452H43.9221V49.0729H51.3465V36.4452H66.3059V30.3066H51.3465Z" fill="white"/>
<path d="M37.2694 28.5528C36.9753 26.8339 36.4608 25.2556 35.7625 23.7823L31.1314 28.5528L30.0655 29.6753C30.2124 30.6926 30.3595 31.8851 30.1758 33.2532C29.9184 35.4279 29.3304 37.252 28.3747 38.5849C26.4636 41.6016 23.1187 43.4606 19.0023 43.4606C12.1659 43.4606 7.35098 38.7602 7.27746 31.9904C7.35098 25.2556 12.1659 20.5201 19.0023 20.5201C21.3178 20.5201 23.376 21.1165 25.0669 22.1687L29.9184 17.0826C27.1251 15.2235 23.6702 14.2062 19.8476 14.2062C14.6284 14.2062 10.4384 16.0653 7.42447 19.7484V0H0V31.359C0 37.2169 2.24204 41.6717 6.28508 45.2145C6.32183 45.2496 11.1 49.8096 19.8476 49.8096C30.1389 49.8096 37.5634 42.3382 37.5634 32.0255C37.5634 30.7978 37.4531 29.6753 37.2694 28.5528Z" fill="white"/>
</svg>
