<svg width="165" height="45" viewBox="0 0 165 45" fill="none" xmlns="http://www.w3.org/2000/svg">
<path d="M56.9564 41.2723C58.6009 41.9087 59.2334 42.2906 59.2334 42.6725C58.9804 43.6908 53.2879 43.6908 51.1374 42.6725C47.8485 41.0177 42.915 28.1615 42.5355 24.3428C40.132 26.1248 38.108 27.0159 36.337 27.3977C32.4155 28.2888 29.759 26.8886 26.976 27.6523C25.205 28.0342 23.434 29.3071 21.2836 32.362C24.699 31.7256 27.482 31.471 29.759 31.471C28.8735 33.5076 28.494 35.2897 28.494 36.6899C28.3675 40.8904 31.1505 43.1816 33.6805 43.8181C35.4515 44.3272 37.2225 43.8181 37.349 42.6725C37.096 41.6541 36.084 41.145 34.313 40.8904C35.072 38.4719 36.2105 36.308 37.602 34.5259C39.2465 32.6166 41.144 31.0891 43.421 30.3254C44.8125 36.1807 47.975 43.4362 50.758 44.0726C54.0469 44.8364 61.0044 44.9637 60.8779 43.0543C60.2454 41.9087 58.9804 41.145 56.9564 41.2723Z" fill="white"/>
<path d="M21.7895 41.3996C21.916 41.7814 21.9161 42.036 21.6631 42.2906C21.0306 43.1816 18.7536 43.5635 16.6031 43.5635C13.6936 43.5635 10.9106 42.7997 11.6696 41.2723C12.4286 37.0717 12.0491 32.9985 10.5311 29.0525C9.51909 26.3794 8.0011 23.5791 6.1036 20.906C5.72411 23.4518 5.97711 25.743 6.6096 27.525C4.33261 28.9252 2.68812 30.4527 1.67612 31.8529C-0.727372 35.0351 -0.221374 37.9628 1.17012 40.1267C3.19411 43.1816 6.9891 44.7091 7.6216 43.5635C7.8746 43.0543 7.4951 42.1633 6.2301 40.5085C5.85061 39.3629 8.2541 36.4353 11.0371 34.9078C11.2901 37.4536 11.2901 39.7448 10.5311 42.036C10.4046 43.4362 13.4406 44.1999 16.3501 44.3272C19.0066 44.4545 21.7895 44.0726 22.422 43.0543C22.675 42.5452 22.5485 42.036 21.7895 41.3996Z" fill="white"/>
<path d="M57.0829 7.41333C57.3359 6.39501 57.3359 6.01315 58.0949 5.24941C58.9804 4.48567 58.9804 4.48567 59.9924 4.10381C58.8539 3.84923 57.5889 1.8126 56.4504 3.46736C56.7034 3.21278 56.5769 3.34007 56.4504 3.46736C56.4504 3.59465 56.4504 3.59465 56.4504 3.46736C55.4384 4.99483 57.3359 6.26772 57.0829 7.41333Z" fill="white"/>
<path d="M76.0579 4.48567C75.5519 3.34007 73.9074 3.21278 72.8954 2.83091C70.8714 2.32176 69.4799 1.17615 67.5824 0.539706C66.0644 0.0305494 64.2934 0.794285 62.7754 0.412417C61.2574 0.0305494 61.5104 -0.224029 59.9924 0.285128C59.2334 0.539706 57.9684 1.17615 56.9564 1.43073C54.2999 2.06718 53.035 3.46736 50.505 4.61296C47.5955 5.12212 45.3185 5.75857 45.3185 5.88586C43.0415 5.63128 40.638 5.88586 38.9935 6.26772C33.301 4.2311 25.964 3.72194 21.4101 4.35838C15.9706 5.12212 11.4166 7.66791 7.6216 11.8685C11.7961 8.17706 16.3501 6.14044 21.2836 5.50399C25.964 4.86754 32.9215 5.3767 38.2345 7.54062C40.638 6.90417 43.421 6.64959 45.8245 7.03146C45.8245 7.03146 48.228 6.14043 50.3785 5.88586C50.3785 5.88586 50.3785 5.88586 50.505 5.88586C51.77 5.3767 53.5409 3.72194 54.4264 3.34007C56.4504 2.57633 58.6009 2.19447 60.6249 1.68531C61.0044 1.55802 60.7514 1.17615 61.3839 1.04886C61.5104 1.04886 61.7634 1.55802 62.0164 1.55802C63.9139 1.68531 66.3174 1.04886 68.0884 1.93989C69.9859 2.83091 71.6304 3.46736 73.6544 4.2311C72.2629 5.88586 74.7929 5.50399 74.4134 6.90417C74.1604 7.66791 73.2749 8.68622 73.2749 8.68622C72.7689 9.70453 70.3654 9.83182 69.4799 10.2137C67.9619 10.8501 57.8419 17.9783 56.5769 18.8694C55.6914 19.3785 54.6794 20.015 53.541 20.6514C53.541 20.6514 54.8059 20.015 57.2094 18.8694C57.2094 18.8694 57.3359 18.8694 57.3359 18.7421C59.4864 17.4692 62.5224 15.6871 64.0404 14.6688C65.9379 13.3959 67.8354 11.8685 70.1124 10.9774C71.8834 10.341 73.0219 10.341 74.4134 8.81351C74.9194 8.17706 76.4374 5.50399 76.0579 4.48567Z" fill="white"/>
<path d="M100.808 15.1929C100.103 15.9469 99.2495 16.5394 98.2469 16.9703C97.2578 17.3877 96.1942 17.5964 95.0561 17.5964C93.647 17.5964 92.3598 17.2867 91.1946 16.6673C90.0294 16.0479 89.1013 15.1862 88.4103 14.082C87.7329 12.9779 87.3942 11.719 87.3942 10.3052C87.3942 8.89134 87.7329 7.63237 88.4103 6.52826C89.1013 5.42414 90.0294 4.56238 91.1946 3.943C92.3598 3.32362 93.647 3.01392 95.0561 3.01392C96.1942 3.01392 97.2578 3.22936 98.2469 3.66024C99.2495 4.07765 100.103 4.66337 100.808 5.4174L98.9988 7.17457C98.5382 6.62251 97.9623 6.19163 97.2713 5.88194C96.5939 5.57225 95.8555 5.4174 95.0561 5.4174C94.1212 5.4174 93.2676 5.61938 92.4953 6.02332C91.7366 6.4138 91.1337 6.97933 90.6866 7.7199C90.2394 8.46046 90.0159 9.32222 90.0159 10.3052C90.0159 11.2881 90.2394 12.1498 90.6866 12.8904C91.1337 13.631 91.7366 14.2032 92.4953 14.6072C93.2676 14.9977 94.1212 15.1929 95.0561 15.1929C95.8555 15.1929 96.5939 15.0381 97.2713 14.7284C97.9623 14.4187 98.5382 13.9878 98.9988 13.4357L100.808 15.1929Z" fill="white"/>
<path d="M112.986 12.2643C112.986 13.2338 112.749 14.1292 112.275 14.9505C111.801 15.7584 111.143 16.4047 110.303 16.8895C109.463 17.3607 108.529 17.5964 107.499 17.5964C106.469 17.5964 105.534 17.3607 104.694 16.8895C103.868 16.4047 103.217 15.7584 102.743 14.9505C102.269 14.1292 102.032 13.2338 102.032 12.2643C102.032 11.2948 102.269 10.4061 102.743 9.59824C103.217 8.77689 103.868 8.13057 104.694 7.6593C105.534 7.17457 106.469 6.9322 107.499 6.9322C108.529 6.9322 109.463 7.17457 110.303 7.6593C111.143 8.13057 111.801 8.77689 112.275 9.59824C112.749 10.4061 112.986 11.2948 112.986 12.2643ZM110.344 12.2643C110.344 11.3621 110.066 10.6485 109.511 10.1234C108.969 9.59824 108.298 9.33568 107.499 9.33568C106.713 9.33568 106.042 9.59824 105.487 10.1234C104.931 10.6485 104.654 11.3621 104.654 12.2643C104.654 13.1664 104.931 13.8801 105.487 14.4052C106.042 14.9303 106.713 15.1929 107.499 15.1929C108.298 15.1929 108.969 14.9303 109.511 14.4052C110.066 13.8801 110.344 13.1664 110.344 12.2643Z" fill="white"/>
<path d="M117.638 3.23609V17.3742H115.017V3.23609H117.638Z" fill="white"/>
<path d="M128.538 16.0816C127.603 17.0914 126.383 17.5964 124.879 17.5964C123.931 17.5964 123.057 17.3675 122.258 16.9097C121.472 16.4384 120.842 15.7988 120.368 14.9909C119.907 14.1696 119.677 13.2607 119.677 12.2643C119.677 11.2679 119.907 10.3657 120.368 9.55785C120.842 8.73649 121.472 8.09691 122.258 7.63911C123.057 7.16784 123.931 6.9322 124.879 6.9322C126.383 6.9322 127.603 7.43713 128.538 8.447V3.23609H131.18V17.3742H128.538V16.0816ZM128.538 12.2643C128.538 11.6584 128.402 11.1198 128.131 10.6485C127.86 10.1638 127.488 9.78675 127.013 9.51746C126.539 9.24816 126.011 9.11351 125.428 9.11351C124.832 9.11351 124.297 9.24816 123.823 9.51746C123.348 9.78675 122.976 10.1638 122.705 10.6485C122.434 11.1198 122.298 11.6584 122.298 12.2643C122.298 12.8702 122.434 13.4155 122.705 13.9003C122.976 14.3715 123.348 14.7418 123.823 15.0111C124.297 15.2804 124.832 15.4151 125.428 15.4151C126.011 15.4151 126.539 15.2804 127.013 15.0111C127.488 14.7418 127.86 14.3715 128.131 13.9003C128.402 13.4155 128.538 12.8702 128.538 12.2643Z" fill="white"/>
<path d="M95.991 33.8653C97.2375 33.9057 98.1656 34.2827 98.7753 34.9963C99.3985 35.6965 99.7102 36.5313 99.7102 37.5008C99.7102 38.2279 99.5205 38.881 99.1411 39.46C98.7617 40.0389 98.1859 40.5035 97.4136 40.8536C96.6413 41.1902 95.6929 41.3585 94.5683 41.3585H88.0039V27.2204H93.4709C95.1645 27.2204 96.4449 27.5368 97.312 28.1697C98.1791 28.8025 98.6127 29.6306 98.6127 30.6539C98.6127 31.3676 98.4095 32.0341 98.003 32.6535C97.6101 33.2594 96.9394 33.6633 95.991 33.8653ZM95.991 31.0377C95.991 30.5395 95.7945 30.1759 95.4016 29.947C95.0087 29.7181 94.4057 29.6037 93.5928 29.6037L91.906 29.6239L91.4792 29.6037L90.6256 29.6239V32.6535H91.906C93.0305 32.6535 93.8367 32.64 94.3245 32.6131C94.9206 32.5592 95.3474 32.3976 95.6048 32.1283C95.8623 31.859 95.991 31.4955 95.991 31.0377ZM97.0884 37.0161C97.0884 36.4371 96.8378 35.9658 96.3365 35.6023C95.8352 35.2387 95.0629 35.0569 94.0196 35.0569H90.6256V38.9752H93.918C95.0019 38.9752 95.8013 38.8002 96.3162 38.4501C96.831 38.0865 97.0884 37.6085 97.0884 37.0161Z" fill="white"/>
<path d="M110.198 40.0659C109.263 41.0757 108.044 41.5807 106.54 41.5807C105.592 41.5807 104.718 41.3518 103.918 40.894C103.132 40.4227 102.502 39.7831 102.028 38.9752C101.567 38.1539 101.337 37.245 101.337 36.2486C101.337 35.2522 101.567 34.35 102.028 33.5421C102.502 32.7208 103.132 32.0812 103.918 31.6234C104.718 31.1521 105.592 30.9165 106.54 30.9165C108.044 30.9165 109.263 31.4214 110.198 32.4313V31.1387H112.84V41.3585H110.198V40.0659ZM110.198 36.2486C110.198 35.6427 110.063 35.1041 109.792 34.6328C109.521 34.1481 109.148 33.771 108.674 33.5018C108.2 33.2325 107.671 33.0978 107.089 33.0978C106.493 33.0978 105.957 33.2325 105.483 33.5018C105.009 33.771 104.636 34.1481 104.365 34.6328C104.094 35.1041 103.959 35.6427 103.959 36.2486C103.959 36.8545 104.094 37.3998 104.365 37.8846C104.636 38.3558 105.009 38.7261 105.483 38.9954C105.957 39.2647 106.493 39.3994 107.089 39.3994C107.671 39.3994 108.2 39.2647 108.674 38.9954C109.148 38.7261 109.521 38.3558 109.792 37.8846C110.063 37.3998 110.198 36.8545 110.198 36.2486Z" fill="white"/>
<path d="M115.493 41.3585V35.8042C115.493 34.8482 115.716 33.9999 116.164 33.2594C116.611 32.5188 117.22 31.9466 117.993 31.5426C118.765 31.1252 119.612 30.9165 120.533 30.9165C121.454 30.9165 122.294 31.1252 123.053 31.5426C123.826 31.9466 124.435 32.5188 124.882 33.2594C125.343 33.9999 125.573 34.8482 125.573 35.8042V41.3585H122.931V35.9254C122.931 35.1175 122.708 34.4847 122.261 34.0269C121.813 33.5556 121.238 33.32 120.533 33.32C119.829 33.32 119.246 33.5556 118.785 34.0269C118.338 34.4847 118.115 35.1175 118.115 35.9254V41.3585H115.493Z" fill="white"/>
<path d="M136.278 40.0659C135.343 41.0757 134.124 41.5807 132.62 41.5807C131.671 41.5807 130.798 41.3518 129.998 40.894C129.212 40.4227 128.582 39.7831 128.108 38.9752C127.647 38.1539 127.417 37.245 127.417 36.2486C127.417 35.2522 127.647 34.35 128.108 33.5421C128.582 32.7208 129.212 32.0812 129.998 31.6234C130.798 31.1521 131.671 30.9165 132.62 30.9165C134.124 30.9165 135.343 31.4214 136.278 32.4313V31.1387H138.92V41.3585H136.278V40.0659ZM136.278 36.2486C136.278 35.6427 136.143 35.1041 135.872 34.6328C135.601 34.1481 135.228 33.771 134.754 33.5018C134.28 33.2325 133.751 33.0978 133.169 33.0978C132.572 33.0978 132.037 33.2325 131.563 33.5018C131.089 33.771 130.716 34.1481 130.445 34.6328C130.174 35.1041 130.039 35.6427 130.039 36.2486C130.039 36.8545 130.174 37.3998 130.445 37.8846C130.716 38.3558 131.089 38.7261 131.563 38.9954C132.037 39.2647 132.572 39.3994 133.169 39.3994C133.751 39.3994 134.28 39.2647 134.754 38.9954C135.228 38.7261 135.601 38.3558 135.872 37.8846C136.143 37.3998 136.278 36.8545 136.278 36.2486Z" fill="white"/>
<path d="M141.573 41.3585V35.8042C141.573 34.8482 141.796 33.9999 142.243 33.2594C142.691 32.5188 143.3 31.9466 144.073 31.5426C144.845 31.1252 145.692 30.9165 146.613 30.9165C147.534 30.9165 148.374 31.1252 149.133 31.5426C149.905 31.9466 150.515 32.5188 150.962 33.2594C151.423 33.9999 151.653 34.8482 151.653 35.8042V41.3585H149.011V35.9254C149.011 35.1175 148.788 34.4847 148.34 34.0269C147.893 33.5556 147.318 33.32 146.613 33.32C145.908 33.32 145.326 33.5556 144.865 34.0269C144.418 34.4847 144.195 35.1175 144.195 35.9254V41.3585H141.573Z" fill="white"/>
<path d="M162.358 40.0659C161.423 41.0757 160.204 41.5807 158.7 41.5807C157.751 41.5807 156.877 41.3518 156.078 40.894C155.292 40.4227 154.662 39.7831 154.188 38.9752C153.727 38.1539 153.497 37.245 153.497 36.2486C153.497 35.2522 153.727 34.35 154.188 33.5421C154.662 32.7208 155.292 32.0812 156.078 31.6234C156.877 31.1521 157.751 30.9165 158.7 30.9165C160.204 30.9165 161.423 31.4214 162.358 32.4313V31.1387H165V41.3585H162.358V40.0659ZM162.358 36.2486C162.358 35.6427 162.222 35.1041 161.951 34.6328C161.681 34.1481 161.308 33.771 160.834 33.5018C160.359 33.2325 159.831 33.0978 159.248 33.0978C158.652 33.0978 158.117 33.2325 157.643 33.5018C157.169 33.771 156.796 34.1481 156.525 34.6328C156.254 35.1041 156.119 35.6427 156.119 36.2486C156.119 36.8545 156.254 37.3998 156.525 37.8846C156.796 38.3558 157.169 38.7261 157.643 38.9954C158.117 39.2647 158.652 39.3994 159.248 39.3994C159.831 39.3994 160.359 39.2647 160.834 38.9954C161.308 38.7261 161.681 38.3558 161.951 37.8846C162.222 37.3998 162.358 36.8545 162.358 36.2486Z" fill="white"/>
</svg>
