<svg width="142" height="42" viewBox="0 0 142 42" fill="none" xmlns="http://www.w3.org/2000/svg">
<path d="M31.6367 27.5466C31.6949 27.5466 31.7332 27.6119 31.702 27.6616C30.9969 28.8388 29.9938 29.7845 28.707 30.4817C26.9719 31.4218 24.7657 31.8989 22.1524 31.8989C18.8566 31.8989 16.09 30.8665 14.152 28.914C12.2169 26.9644 11.1939 24.184 11.1939 20.874C11.1939 17.564 12.2169 14.785 14.152 12.834C16.09 10.8815 18.8552 9.84912 22.1524 9.84912C27.1662 9.84912 30.6478 11.7519 31.963 15.2082C31.9744 15.238 32.0042 15.2579 32.0354 15.2565L43.1797 14.7794C43.2265 14.7779 43.2605 14.7325 43.2506 14.6871C42.3015 10.3064 39.8371 6.61578 36.12 4.01008C32.3801 1.38592 27.5493 0 22.1509 0C19.0042 0 16.0262 0.515461 13.2965 1.53218C10.6222 2.52902 8.25855 3.97884 6.27088 5.84188C4.27611 7.71202 2.72259 9.94 1.65285 12.4633C0.556154 15.0506 0 17.8806 0 20.8726C0 23.8645 0.556154 26.6946 1.65285 29.2818C2.72259 31.8052 4.27611 34.0332 6.27088 35.9033C8.25855 37.7663 10.6222 39.2162 13.2965 40.213C16.0248 41.2297 19.0042 41.7452 22.1509 41.7452C29.2617 41.7452 35.0829 39.5215 38.9873 35.3126C42.7782 31.2272 44.5175 25.4904 44.0167 18.7227L43.9628 17.99C43.9615 17.971 43.953 17.9532 43.939 17.9402C43.925 17.9273 43.9067 17.9202 43.8876 17.9204H22.3169C22.2758 17.9204 22.2418 17.9545 22.2418 17.9957V27.4685C22.2418 27.5097 22.2758 27.5437 22.3169 27.5437H31.6353L31.6367 27.5466Z" fill="white"/>
<path d="M71.6812 30.4755C71.7124 30.4755 71.7394 30.494 71.7507 30.5224L75.7672 40.5717C75.7786 40.6001 75.8069 40.6186 75.8367 40.6186H97.9494C97.9905 40.6186 98.0246 40.5845 98.0246 40.5433V1.20223C98.0246 1.16105 97.9905 1.12697 97.9494 1.12697H87.1328C87.0917 1.12697 87.0576 1.16105 87.0576 1.20223V38.5994C87.0576 38.6817 86.9455 38.7044 86.9129 38.6292L70.8257 1.17241C70.82 1.15873 70.8103 1.14707 70.7979 1.13897C70.7855 1.13087 70.771 1.12668 70.7562 1.12697H56.9886C56.9588 1.12697 56.9319 1.14543 56.9191 1.17241L40.0232 40.5135C40.0019 40.5632 40.0388 40.6186 40.0927 40.6186H51.9081C51.9393 40.6186 51.9662 40.6001 51.9776 40.5717L55.9941 30.5224C56.0054 30.494 56.0338 30.4755 56.0636 30.4755H71.6812ZM59.7907 20.9729L63.8029 10.9548C63.8284 10.8909 63.9178 10.8909 63.9433 10.9548L67.9556 20.9729C67.9754 21.0226 67.9385 21.0765 67.886 21.0765H59.8602C59.8063 21.0765 59.7708 21.0226 59.7907 20.9729Z" fill="white"/>
<path d="M101.292 1.20221V40.5433C101.292 40.5845 101.326 40.6186 101.367 40.6186H112.127C112.168 40.6186 112.202 40.5845 112.202 40.5433V12.4628C112.202 12.3805 112.315 12.3577 112.347 12.433L124.107 40.5717C124.118 40.6001 124.146 40.6186 124.176 40.6186H141.8C141.841 40.6186 141.875 40.5845 141.875 40.5433V1.20221C141.875 1.16103 141.841 1.12695 141.8 1.12695H131.04C130.999 1.12695 130.965 1.16103 130.965 1.20221V29.2841C130.965 29.3665 130.851 29.3892 130.82 29.314L119.06 1.17381C119.055 1.15998 119.045 1.14813 119.033 1.13979C119.02 1.13144 119.006 1.12698 118.991 1.12695H101.368C101.327 1.12695 101.293 1.16103 101.293 1.20221H101.292Z" fill="white"/>
</svg>
