<svg width="125" height="48" viewBox="0 0 125 48" fill="none" xmlns="http://www.w3.org/2000/svg">
<path d="M66.8513 0V46.2477C65.8807 43.5651 65.4813 40.7082 65.6789 37.8612V23.0666C65.6789 13.4881 57.9479 11.7302 49.9575 11.7302C46.2446 11.6032 42.5591 12.4117 39.2382 14.0819C37.6396 14.9882 36.3098 16.3043 35.3851 17.8954C34.4603 19.4865 33.9738 21.2955 33.9753 23.1371H44.3062C44.8265 20.2711 46.7742 18.9042 49.8285 18.9042C52.1017 18.9042 55.1559 19.8786 55.1559 22.4213C55.1559 24.5055 54.1168 25.158 52.2336 25.5475C45.8832 26.8424 36.5913 26.4838 33.5869 32.5804V24.8244C33.5869 19.9389 32.6782 11.7302 21.4386 11.7302C17.4112 11.7302 12.862 13.879 11.1795 17.3315H11.0461V0H0V46.5211H11.0461V28.0843C11.0461 24.3702 12.8649 20.8516 17.0213 20.8516C23.064 20.8516 22.5451 25.5431 22.5451 30.1699V46.5211H33.5883V41.9854C35.3602 45.7186 39.3642 47.4941 44.1142 47.4941C46.1498 47.58 48.1819 47.2553 50.0901 46.5393C51.9983 45.8233 53.7439 44.7306 55.2234 43.3259C55.3077 44.4123 55.5258 45.484 55.8726 46.5167H77.8975V33.2888C78.5887 37.3714 80.7352 41.0633 83.9377 43.6774C87.1402 46.2915 91.1806 47.65 95.3072 47.5C97.6663 47.579 100.016 47.1712 102.212 46.302C104.408 45.4327 106.402 44.1205 108.071 42.4467C109.74 40.7728 111.048 38.773 111.915 36.5712C112.782 34.3694 113.188 32.0126 113.11 29.6467C113.189 27.2778 112.783 24.9178 111.917 22.7123C111.051 20.5069 109.744 18.5028 108.076 16.8239C106.407 15.1449 104.414 13.8267 102.218 12.9506C100.021 12.0745 97.6696 11.6592 95.3072 11.7302C91.1744 11.5904 87.1316 12.9597 83.9296 15.5837C80.7276 18.2076 78.5842 21.908 77.8975 25.9973V0H66.8513ZM88.6153 29.6467C88.6153 25.3462 90.1747 20.199 95.3072 20.199C100.437 20.199 102.064 25.3432 102.064 29.6467C102.064 33.9473 100.44 39.0297 95.3072 39.0297C90.1776 39.0297 88.6153 33.9458 88.6153 29.6467ZM43.6584 36.8148C43.6584 34.1427 45.7366 33.1007 48.2017 32.5142C50.6038 31.8631 53.4632 31.6676 55.0226 30.6888C55.2834 37.6599 53.5277 40.6582 48.2647 40.6582C45.7952 40.6582 43.6525 39.55 43.6525 36.8148M112.909 46.5152H125V34.4014H112.915L112.909 46.5152Z" fill="white"/>
</svg>
