<svg width="125" height="37" viewBox="0 0 125 37" fill="none" xmlns="http://www.w3.org/2000/svg">
<path d="M123.204 10.9815C118.752 1.45526 107.42 -2.65641 97.8927 1.79548L97.0598 0.0117184C87.5324 4.46362 83.4192 15.7941 87.8716 25.3203C92.324 34.8466 103.656 38.9583 113.183 34.5064L114.016 36.2891C123.543 31.8372 127.657 20.5068 123.204 10.9805V10.9815ZM109.858 27.3939C104.26 30.0094 97.6029 27.5924 94.9871 21.9964C92.3712 16.3994 94.7885 9.743 100.385 7.12746L101.218 8.90907C106.816 6.29353 113.473 8.71052 116.089 14.3065C118.705 19.9036 116.287 26.56 110.691 29.1755L109.858 27.3939Z" fill="white"/>
<path d="M87.0666 35.9907L66.4264 35.9918V35.9907H65.4539L62.573 29.812V0.303646H70.4269V28.1387H83.4053L87.0666 35.9907Z" fill="white"/>
<path d="M43.017 0.302573L38.6848 9.59382L39.5242 11.3926L28.0529 35.9886H36.7184L43.8564 20.6839L50.9933 35.9886H59.6577L59.6598 35.9875L43.017 0.302573Z" fill="white"/>
<path d="M26.4654 24.7043C26.4654 24.7848 26.4654 24.8621 26.4632 24.9404C26.3366 31.0655 21.3314 35.9886 15.1766 35.9886H0L3.66132 28.1355H6.10971V28.1387H15.4084C16.3562 28.1387 17.2139 27.7545 17.8343 27.1342C18.4558 26.5127 18.8401 25.6552 18.8401 24.7075C18.8401 22.8121 17.303 21.2763 15.4084 21.2763H15.2947C15.255 21.2752 15.2163 21.2741 15.1766 21.2741H12.3471C9.75814 21.2741 7.38704 20.3522 5.55691 18.796C3.35433 16.9253 1.93531 14.1616 1.85803 11.0663C1.85803 11.0223 1.85266 10.8431 1.85266 10.7959C1.85266 7.89806 3.02695 5.275 4.92576 3.3764C6.82458 1.4778 9.44794 0.303646 12.345 0.302573H27.7384L24.0739 8.15564H12.3471C12.3321 8.15564 12.3171 8.15564 12.3021 8.15672H12.1496C11.4208 8.15672 10.7596 8.45186 10.282 8.93054C9.8043 9.40814 9.50805 10.0682 9.50805 10.798C9.50805 12.2566 10.6909 13.4382 12.1496 13.4382H15.3709C21.516 13.5413 26.4654 18.5352 26.4654 24.7043Z" fill="white"/>
</svg>
